<?xml version="1.0"?>
<svg xmlns="http://www.w3.org/2000/svg" viewBox="0 0 64 64" width="512" height="512"><g id="Antihistamines"><polygon points="55 45 55 57 32 61 9 57 9 45 23 42 41 42 55 45" style="fill:#57a4ff"/><polygon points="55 45 55 57 32 61 30 60.65 51 57 51 45 37 42 41 42 55 45" style="fill:#2488ff"/><path d="M56,39a5,5,0,0,1,0,10,3.593,3.593,0,0,1-1-.18A11.122,11.122,0,0,1,53,48c-.5.96-.85,2-2,2a3,3,0,0,1-3-3l-1.01-3.72L45,36l5,3a3,3,0,0,1,6,0Z" style="fill:#e0e0e2"/><path d="M61,44a5,5,0,0,1-5,5,3.593,3.593,0,0,1-1-.18,8.752,8.752,0,0,1-.86-.3A5,5,0,0,0,52,39a2.94,2.94,0,0,0-1-2.23A2.965,2.965,0,0,1,53,36a3,3,0,0,1,3,3A5,5,0,0,1,61,44Z" style="fill:#c6c5ca"/><path d="M51.46,23A5.931,5.931,0,0,1,53,27a6,6,0,0,1-6,6H17a6,6,0,0,1-6-6,5.931,5.931,0,0,1,1.54-4A5.931,5.931,0,0,1,11,19a6,6,0,0,1,5-5.91V13a6,6,0,0,1,6-6c.12,0,.23.01.34.02A6,6,0,0,1,28,3a5.931,5.931,0,0,1,4,1.54A5.931,5.931,0,0,1,36,3a6,6,0,0,1,5.66,4.02c.11-.01.22-.02.34-.02a6,6,0,0,1,6,6v.09A6,6,0,0,1,53,19,5.931,5.931,0,0,1,51.46,23Z" style="fill:#c6c5ca"/><path d="M51.46,23A5.931,5.931,0,0,1,53,27a6,6,0,0,1-6,6H43a6,6,0,0,0,6-6,5.931,5.931,0,0,0-1.54-4A5.931,5.931,0,0,0,49,19a6,6,0,0,0-5-5.91V13a6,6,0,0,0-6-6c-.12,0-.23.01-.34.02A6,6,0,0,0,34,3.35,5.761,5.761,0,0,1,36,3a6,6,0,0,1,5.66,4.02c.11-.01.22-.02.34-.02a6,6,0,0,1,6,6v.09A6,6,0,0,1,53,19,5.931,5.931,0,0,1,51.46,23Z" style="fill:#acabb1"/><path d="M44,50c-3,0-3-4-6-4-1.56,0-2.32,1.08-3.1,2.12l.01.01c-.72.95-1.46,1.87-2.9,1.87h-.02c-1.44,0-2.18-.92-2.9-1.87l.01-.01C28.32,47.08,27.56,46,26,46c-3,0-3,4-6,4l3.57-17.15a8.613,8.613,0,0,1,16.86,0Z" style="fill:#ff7956"/><path d="M44,50c-2.53,0-2.93-2.84-4.78-3.73L36.43,32.85a8.563,8.563,0,0,0-1.96-3.92A8.654,8.654,0,0,0,30,26.23,8.759,8.759,0,0,1,32,26a8.617,8.617,0,0,1,8.43,6.85Z" style="fill:#ff6243"/><path d="M43,15V26a10.869,10.869,0,0,1-.93,4.42,10.7,10.7,0,0,1-1.6,2.61l-.04-.18a8.612,8.612,0,0,0-16.86,0l-.04.18a10.7,10.7,0,0,1-1.6-2.61A10.869,10.869,0,0,1,21,26V15l15-4Z" style="fill:#ffdaaa"/><path d="M43,15V26a10.869,10.869,0,0,1-.93,4.42,10.7,10.7,0,0,1-1.6,2.61l-.04-.18a8.478,8.478,0,0,0-1.86-3.8A10.964,10.964,0,0,0,39,26V15l-5.73-3.27L36,11Z" style="fill:#ffc477"/><path d="M19,36l-1.99,7.28L16,47a3,3,0,0,1-3,3c-1.15,0-1.5-1.04-2-2a11.122,11.122,0,0,1-2,.82A3.593,3.593,0,0,1,8,49,5,5,0,0,1,8,39a3,3,0,0,1,6,0Z" style="fill:#e0e0e2"/><path d="M55,53v2a6,6,0,0,1-6,6H43.92L31.02,42.57a4,4,0,1,1,6.55-4.59L48.08,53Z" style="fill:#ffdaaa"/><path d="M55,53v2a6,6,0,0,1-6,6H45a6,6,0,0,0,6-6V53Z" style="fill:#ffc477"/><path d="M35,20a1,1,0,0,0,.445.832l3,2,1.11-1.664L37.8,20l1.752-1.168-1.11-1.664-3,2A1,1,0,0,0,35,20Z"/><path d="M28.555,19.168l-3-2-1.11,1.664L26.2,20l-1.752,1.168,1.11,1.664,3-2a1,1,0,0,0,0-1.664Z"/><rect x="31" y="16" width="2" height="4"/><path d="M56.89,38.07a4,4,0,0,0-7.57-.64l-3.81-2.29a1,1,0,0,0-1.47,1.12l1.55,5.7-2.35-.5-1.7-8.19a11.838,11.838,0,0,0,.75-1.1A6.994,6.994,0,0,0,52.74,23a6.994,6.994,0,0,0-3.78-10.72,7.016,7.016,0,0,0-6.64-6.27A6.983,6.983,0,0,0,32,3.26,6.983,6.983,0,0,0,21.68,6.01a7.03,7.03,0,0,0-6.64,6.27A6.994,6.994,0,0,0,11.26,23a6.994,6.994,0,0,0,10.45,9.17,11.838,11.838,0,0,0,.75,1.1l-1.7,8.19-2.35.5,1.55-5.7a1,1,0,0,0-1.47-1.12l-3.81,2.29a4,4,0,0,0-7.57.64A6,6,0,0,0,8,50v7a1.008,1.008,0,0,0,.83.99l23,4a1.45,1.45,0,0,0,.34,0l10-1.74.93,1.32a1,1,0,0,0,.82.43H49a7.008,7.008,0,0,0,7-7V50a6,6,0,0,0,.89-11.93Zm-36.1-7.82a4.993,4.993,0,1,1-7.51-6.58.986.986,0,0,0,0-1.34,4.984,4.984,0,0,1,2.88-8.25A1.1,1.1,0,0,0,17,13a5,5,0,0,1,5-5,1.948,1.948,0,0,1,.25.02,1,1,0,0,0,1.03-.67,4.99,4.99,0,0,1,8.05-2.07.986.986,0,0,0,1.34,0,4.99,4.99,0,0,1,8.05,2.07,1,1,0,0,0,1.03.67A1.948,1.948,0,0,1,42,8a5.022,5.022,0,0,1,5,5.09,1,1,0,0,0,.84.99,4.984,4.984,0,0,1,2.88,8.25.986.986,0,0,0,0,1.34,4.993,4.993,0,1,1-7.51,6.58A11.822,11.822,0,0,0,44,26V15a1,1,0,0,0-.5-.87l-7-4a1.055,1.055,0,0,0-.76-.1l-15,4A1,1,0,0,0,20,15V26A11.822,11.822,0,0,0,20.79,30.25ZM22,26V15.77l13.86-3.7L42,15.58V26a10.028,10.028,0,0,1-1.2,4.75A9.6,9.6,0,0,0,32,25a9.653,9.653,0,0,0-8.79,5.75A9.922,9.922,0,0,1,22,26Zm2.55,7.05A7.606,7.606,0,0,1,36.8,28.71a7.5,7.5,0,0,1,2.65,4.34l1.74,8.36-2.8-4a5,5,0,0,0-6.96-1.23,4.991,4.991,0,0,0-1.23,6.96l3.46,4.95a2.017,2.017,0,0,1-1.65.91c-.95,0-1.43-.58-2.2-1.6-.8-1.07-1.8-2.4-3.81-2.4s-3,1.33-3.8,2.4a8.152,8.152,0,0,1-.85,1.02ZM8,48a4,4,0,0,1,0-8,1,1,0,0,0,1-1,2,2,0,0,1,4,0,1,1,0,0,0,1.51.86l2.87-1.72-2.34,8.6A.746.746,0,0,0,15,47a2.006,2.006,0,0,1-2,2c-.32,0-.48-.18-.92-1.08l-.19-.38a1.025,1.025,0,0,0-.6-.5A.925.925,0,0,0,11,47a1,1,0,0,0-.48.12A7.251,7.251,0,0,1,8,48ZM32,59.98,10,56.16V49.54c.19-.07.38-.14.55-.22A2.705,2.705,0,0,0,13,51a4.011,4.011,0,0,0,4-3.86l.82-3.01,2.49-.53-1.29,6.2a.993.993,0,0,0,.2.83A1.022,1.022,0,0,0,20,51c2,0,3-1.33,3.8-2.4.77-1.02,1.25-1.6,2.2-1.6s1.44.58,2.21,1.6c.8,1.07,1.8,2.4,3.8,2.4a3.829,3.829,0,0,0,2.83-1.23l6.06,8.67ZM54,55a5,5,0,0,1-5,5H44.44L31.84,42a3,3,0,1,1,4.91-3.44L47.26,53.57a1.01,1.01,0,0,0,.82.43H54Zm0-3H48.6l-4.5-6.44-.41-1.96,2.49.53L47,47.14A4.011,4.011,0,0,0,51,51a2.705,2.705,0,0,0,2.45-1.68c.17.08.36.15.55.22Zm2-4a7.251,7.251,0,0,1-2.52-.88,1.036,1.036,0,0,0-.77-.08,1.025,1.025,0,0,0-.6.5l-.19.38c-.44.9-.6,1.08-.92,1.08a2.006,2.006,0,0,1-2-2,.746.746,0,0,0-.04-.26l-2.34-8.6,2.87,1.72A1,1,0,0,0,51,39a2,2,0,0,1,4,0,1,1,0,0,0,1,1,4,4,0,0,1,0,8Z"/></g></svg>
