<svg height="512" viewBox="0 0 64 64" width="512" xmlns="http://www.w3.org/2000/svg"><g id="Sick"><path d="m36 37a2 2 0 0 1 0-4h2v4z" fill="#ffde55"/><path d="m61 31v8h-15l-4-2h-4v-4h4l4-2z" fill="#46f8ff"/><path d="m57 31h4v8h-4z" fill="#00d7df"/><path d="m41 55v6h-38v-6a8 8 0 0 1 8-8h22a8 8 0 0 1 8 8z" fill="#ff7956"/><path d="m41 55v6h-4v-6a8 8 0 0 0 -8-8h4a8 8 0 0 1 8 8z" fill="#ff6243"/><path d="m34 28v1a2.006 2.006 0 0 1 -2 2h-1v-5h1a2.006 2.006 0 0 1 2 2z" fill="#ffdaaa"/><path d="m34 21v2l-3 3v-3l-3-.82v-1.18a2.006 2.006 0 0 0 -2-2h-8a2.006 2.006 0 0 0 -2 2v.71l-3 1.29v3l-3-3v-2a8 8 0 0 1 8-8h8a8 8 0 0 1 8 8z" fill="#a78966"/><path d="m31 23v8a8.981 8.981 0 0 1 -6 8.48 8.914 8.914 0 0 1 -6 0 8.981 8.981 0 0 1 -6-8.48v-8l3-1.29v1.29a2.006 2.006 0 0 0 2 2h8a2.006 2.006 0 0 0 2-2v-.82z" fill="#ffdaaa"/><path d="m34 21v2l-3 3v-3l-1-.27v-1.73a8 8 0 0 0 -8-8h4a8 8 0 0 1 8 8z" fill="#957856"/><path d="m31 23v8a8.981 8.981 0 0 1 -6 8.48 8.8 8.8 0 0 1 -3 .52 8.236 8.236 0 0 1 -2-.24 5.7 5.7 0 0 0 1-.28 8.981 8.981 0 0 0 6-8.48v-6.27a2 2 0 0 0 1-1.73v-.82z" fill="#ffc477"/><path d="m29 47-2 10h-10l-2-10 7 4z" fill="#00ddc2"/><path d="m29 47-7 4-7-4 4-3v-4.52a8.914 8.914 0 0 0 6 0v4.52z" fill="#ffdaaa"/><path d="m29 47-7 4-2-1.14 5-2.86-4-3v-4.06a8.262 8.262 0 0 0 1 .06 8.8 8.8 0 0 0 3-.52v4.52z" fill="#ffc477"/><rect fill="#57a4ff" height="6" rx="2" width="12" x="16" y="19"/><path d="m28 21v2a2.006 2.006 0 0 1 -2 2h-4a2.006 2.006 0 0 0 2-2v-2a2.006 2.006 0 0 0 -2-2h4a2.006 2.006 0 0 1 2 2z" fill="#2488ff"/><path d="m13 26v5h-1a2.006 2.006 0 0 1 -2-2v-1a2.006 2.006 0 0 1 2-2z" fill="#ffdaaa"/><path d="m33 46h-3.67l-3.33-2.5v-3.34a10.024 10.024 0 0 0 5.95-8.16h.05a3.009 3.009 0 0 0 3-3v-1a3 3 0 0 0 -1.83-2.76l1.54-1.53a1.033 1.033 0 0 0 .29-.71v-2a9.014 9.014 0 0 0 -9-9h-8a9.014 9.014 0 0 0 -9 9v2a1.033 1.033 0 0 0 .29.71l1.54 1.53a3 3 0 0 0 -1.83 2.76v1a3.009 3.009 0 0 0 3 3h.05a10.024 10.024 0 0 0 5.95 8.16v3.34l-3.33 2.5h-3.67a9.014 9.014 0 0 0 -9 9v6a1 1 0 0 0 1 1h38a1 1 0 0 0 1-1v-6a9.014 9.014 0 0 0 -9-9zm0-17a1 1 0 0 1 -1 1v-3a1 1 0 0 1 1 1zm-21 1a1 1 0 0 1 -1-1v-1a1 1 0 0 1 1-1zm0-7v.59l-1-1v-1.59a7.008 7.008 0 0 1 7-7h8a7.008 7.008 0 0 1 7 7v1.59l-1 1v-.59a.985.985 0 0 0 -.74-.96l-2.26-.62v-.42a3.009 3.009 0 0 0 -3-3h-8a3.009 3.009 0 0 0 -3 3v.05l-2.4 1.03a1.011 1.011 0 0 0 -.6.92zm15-2v2a1 1 0 0 1 -1 1h-8a1 1 0 0 1 -1-1v-2a1 1 0 0 1 1-1h8a1 1 0 0 1 1 1zm-13 10v-7.34l1.02-.44a3 3 0 0 0 2.98 2.78h8a3 3 0 0 0 2.95-2.52l1.05.28v7.24a8 8 0 0 1 -16 0zm5.6 13.8a1.014 1.014 0 0 0 .4-.8v-3.2a10.1 10.1 0 0 0 4 0v3.2a1.014 1.014 0 0 0 .4.8l2.78 2.09-5.18 2.96-5.18-2.96zm1.9 7.07a1.044 1.044 0 0 0 1 0l5.09-2.91-1.41 7.04h-8.36l-1.41-7.04zm18.5 8.13h-36v-5a7.008 7.008 0 0 1 7-7h3.18l1.84 9.2a1 1 0 0 0 .98.8h10a1 1 0 0 0 .98-.8l1.84-9.2h3.18a7.008 7.008 0 0 1 7 7z"/><path d="m17 27h2v2h-2z"/><path d="m25 27h2v2h-2z"/><path d="m24.445 35.74 1.11-1.664a6.4 6.4 0 0 0 -7.11 0l1.11 1.664a4.4 4.4 0 0 1 4.89 0z"/><path d="m61 30h-15a1 1 0 0 0 -.45.11l-3.79 1.89h-5.76a3 3 0 0 0 0 6h5.76l3.79 1.89a1 1 0 0 0 .45.11h15a1 1 0 0 0 1-1v-8a1 1 0 0 0 -1-1zm-24 6h-1a1 1 0 0 1 0-2h1zm23 2h-13.76l-3.79-1.89a1 1 0 0 0 -.45-.11h-3v-2h3a1 1 0 0 0 .45-.11l3.79-1.89h13.76z"/><path d="m56 34h2v2h-2z"/><path d="m52 34h2v2h-2z"/><path d="m21.445 7.836a2.573 2.573 0 0 0 -1.445 2.164h2c0-.112.163-.239.555-.5a2.573 2.573 0 0 0 1.445-2.164 2.576 2.576 0 0 0 -1.445-2.166c-.391-.261-.555-.389-.555-.5s.164-.241.555-.5a2.576 2.576 0 0 0 1.445-2.17h-2c0 .113-.164.241-.555.5a2.576 2.576 0 0 0 -1.445 2.168 2.576 2.576 0 0 0 1.445 2.166c.391.261.555.389.555.5s-.163.241-.555.502z"/><path d="m26.445 7.836a2.573 2.573 0 0 0 -1.445 2.164h2c0-.112.163-.239.555-.5a2.573 2.573 0 0 0 1.445-2.164 2.576 2.576 0 0 0 -1.445-2.166c-.391-.261-.555-.389-.555-.5s.164-.241.555-.5a2.576 2.576 0 0 0 1.445-2.17h-2c0 .113-.164.241-.555.5a2.576 2.576 0 0 0 -1.445 2.168 2.576 2.576 0 0 0 1.445 2.166c.391.261.555.389.555.5s-.163.241-.555.502z"/><path d="m16.445 7.836a2.573 2.573 0 0 0 -1.445 2.164h2c0-.112.163-.239.555-.5a2.573 2.573 0 0 0 1.445-2.164 2.576 2.576 0 0 0 -1.445-2.166c-.391-.261-.555-.389-.555-.5s.164-.241.555-.5a2.576 2.576 0 0 0 1.445-2.17h-2c0 .113-.164.241-.555.5a2.576 2.576 0 0 0 -1.445 2.168 2.576 2.576 0 0 0 1.445 2.166c.391.261.555.389.555.5s-.163.241-.555.502z"/></g></svg>