<?xml version="1.0"?>
<svg xmlns="http://www.w3.org/2000/svg" viewBox="0 0 64 64" width="512" height="512"><g id="Antibiotic"><path d="M55,45V57L32.34,60.94,32,61,9,57V45l14-3,4.34-6.03a11.057,11.057,0,0,0,9.32,0L41,42Z" style="fill:#ffdaaa"/><path d="M47,22v2a2.006,2.006,0,0,1-2,2H43V20h2A2.006,2.006,0,0,1,47,22Z" style="fill:#ffdaaa"/><path d="M47,13v1.34a4,4,0,0,1-1.17,2.83L43,20V15L28,11l-7,4v5l-2.83-2.83A4,4,0,0,1,17,14.34V13A10,10,0,0,1,27,3H37A10,10,0,0,1,47,13Z" style="fill:#a78966"/><path d="M43,15V26a11,11,0,1,1-22,0V15l7-4Z" style="fill:#ffdaaa"/><path d="M55,45V57L32.34,60.94,32,61l-2-.35L51,57V45L37,42l-3.66-5.08a10.865,10.865,0,0,0,3.32-.95L41,42Z" style="fill:#ffc477"/><path d="M47,13v1.34a4,4,0,0,1-1.17,2.83L43,20V15l-.06-.02a3.387,3.387,0,0,0,.06-.64V13A10,10,0,0,0,33,3h4A10,10,0,0,1,47,13Z" style="fill:#957856"/><path d="M43,15V26A11.017,11.017,0,0,1,30,36.82a10.875,10.875,0,0,0,2.66-.85A11,11,0,0,0,39,26V15L26.73,11.73,28,11Z" style="fill:#ffc477"/><path d="M36.24,45.76a2.994,2.994,0,0,1,0,4.24l-2.12,2.12-4.24-4.24L32,45.76a3.067,3.067,0,0,1,.99-.66A3,3,0,0,1,36.24,45.76Z" style="fill:#57a4ff"/><path d="M34.12,52.12,32,54.24A3,3,0,1,1,27.76,50l2.12-2.12Z" style="fill:#ffde55"/><path d="M21,20v6H19a2.006,2.006,0,0,1-2-2V22a2.006,2.006,0,0,1,2-2Z" style="fill:#ffdaaa"/><path d="M52,4.766V7a1,1,0,0,0,1.243.97l4.9-1.225-4.9,5.6a1,1,0,0,0,.477,1.62l3.717,1.062-6.729,2.019.574,1.916,10-3a1,1,0,0,0-.012-1.919l-5.484-1.567,5.961-6.813a1,1,0,0,0-1-1.629L54,5.719V3a1,1,0,0,0-1.515-.857l-5,3,1.03,1.714Z"/><path d="M2,14.994a1,1,0,0,0,.713.964l10,3,.574-1.916L6.558,15.023l3.717-1.062a1,1,0,0,0,.477-1.62l-4.9-5.6,4.9,1.225A1,1,0,0,0,12,7V4.766l3.485,2.091,1.03-1.714-5-3A1,1,0,0,0,10,3V5.719L3.243,4.03a1,1,0,0,0-.995,1.629l5.961,6.813L2.725,14.039A1,1,0,0,0,2,14.994Z"/><path d="M55.21,44.02,41.59,41.1l-3.46-4.8A12,12,0,0,0,43.95,27H45a3.009,3.009,0,0,0,3-3V22a2.992,2.992,0,0,0-2.62-2.96l1.16-1.16A4.994,4.994,0,0,0,48,14.34V13A11.007,11.007,0,0,0,37,2H27A11.007,11.007,0,0,0,16,13v1.34a4.994,4.994,0,0,0,1.46,3.54l1.16,1.16A2.992,2.992,0,0,0,16,22v2a3.009,3.009,0,0,0,3,3h1.05a12,12,0,0,0,5.82,9.3l-3.46,4.8L8.79,44.02A1,1,0,0,0,8,45V57a1.008,1.008,0,0,0,.83.99l23,4a1.45,1.45,0,0,0,.34,0l23-4A1.008,1.008,0,0,0,56,57V45A1,1,0,0,0,55.21,44.02ZM46,22v2a1,1,0,0,1-1,1H44V21h1A1,1,0,0,1,46,22ZM20,25H19a1,1,0,0,1-1-1V22a1,1,0,0,1,1-1h1Zm0-10v2.59l-1.12-1.13A3,3,0,0,1,18,14.34V13a9.014,9.014,0,0,1,9-9H37a9.014,9.014,0,0,1,9,9v1.34a3,3,0,0,1-.88,2.12L44,17.59V15a1,1,0,0,0-.74-.97l-15-4a1.055,1.055,0,0,0-.76.1l-7,4A1,1,0,0,0,20,15Zm2,11V15.58l6.14-3.51L42,15.77V26a10,10,0,0,1-20,0ZM54,56.16,32,59.98,10,56.16V45.81l13.21-2.83a.954.954,0,0,0,.6-.4l3.89-5.39a11.819,11.819,0,0,0,8.6,0l3.89,5.39a.954.954,0,0,0,.6.4L54,45.81Z"/><path d="M40.555,20.832l-1.11-1.664a4.4,4.4,0,0,1-4.89,0l-1.11,1.664a6.391,6.391,0,0,0,7.11,0Z"/><path d="M24.555,19.168l-1.11,1.664a6.391,6.391,0,0,0,7.11,0l-1.11-1.664A4.4,4.4,0,0,1,24.555,19.168Z"/><path d="M31.293,45.05,27.05,49.293a4,4,0,0,0,5.657,5.657l4.243-4.243a4,4,0,0,0-5.657-5.657Zm0,8.486a2,2,0,0,1-2.829-2.829l1.415-1.414,2.828,2.828Zm4.243-4.243-1.415,1.414-2.828-2.828,1.414-1.415a2,2,0,0,1,2.829,2.829Z"/><path d="M61.083,35l-10.4-.866,2.173-3.622a1,1,0,0,0-1.251-1.434l-7,3,.788,1.838,4.157-1.782-1.408,2.348A1,1,0,0,0,48.917,36l5.98.5-6.14,1.535a1,1,0,0,0-.129,1.9l5,2,.744-1.858-2.129-.851,9-2.25A1,1,0,0,0,61.083,35Z"/><path d="M9.628,40.071l.744,1.858,5-2a1,1,0,0,0-.129-1.9L9.1,36.495l5.98-.5a1,1,0,0,0,.774-1.512l-1.408-2.348,4.157,1.782.788-1.838-7-3a1,1,0,0,0-1.251,1.434l2.173,3.622L2.917,35a1,1,0,0,0-.16,1.967l9,2.25Z"/><rect x="31" y="39" width="2" height="4"/><rect x="31" y="57" width="2" height="2"/></g></svg>
