<?xml version="1.0"?>
<svg xmlns="http://www.w3.org/2000/svg" id="filled_outline" data-name="filled outline" viewBox="0 0 512 512" width="512" height="512"><path d="M471.02954,224h-.00024a16.97168,16.97168,0,0,0-12,4.97046L448,240l-.68921-.22974a191.13225,191.13225,0,0,0-44.56128-107.564l.32861-.657h15.59815a16.97071,16.97071,0,0,0,12-28.97071L409.42139,81.32373a16.97052,16.97052,0,0,0-24,0h0a16.9709,16.9709,0,0,0-4.97071,12v15.59815l-.657.32836a191.1337,191.1337,0,0,0-107.564-44.561L272,64l11.0293-11.02954A16.96992,16.96992,0,0,0,288,40.9707v-.00024A16.97042,16.97042,0,0,0,271.02954,24H240.97046A16.97042,16.97042,0,0,0,224,40.97046v.00024a16.96992,16.96992,0,0,0,4.9707,11.99976L240,64l-.22974.68921a191.1337,191.1337,0,0,0-107.564,44.561l-.657-.32836V93.32373a16.9709,16.9709,0,0,0-4.97071-12h0a16.97052,16.97052,0,0,0-24,0L81.32373,102.57861a16.97071,16.97071,0,0,0,12,28.97071h15.59815l.32861.657a191.13225,191.13225,0,0,0-44.56128,107.564L64,240,52.9707,228.97046a16.97168,16.97168,0,0,0-12-4.97046h-.00024A16.97042,16.97042,0,0,0,24,240.97046V271.0293A16.97047,16.97047,0,0,0,40.97046,288h.00024a16.9709,16.9709,0,0,0,12-4.9707L64,272l.68921.22974a191.13225,191.13225,0,0,0,44.56128,107.564l-.32861.657H93.32373a16.97071,16.97071,0,0,0-12,28.97071l21.25488,21.25488a16.97052,16.97052,0,0,0,24,0h0a16.9709,16.9709,0,0,0,4.97071-12V403.07812l.657-.32861a191.13225,191.13225,0,0,0,107.564,44.56128L240,448l-11.0293,11.0293A16.97056,16.97056,0,0,0,240.97046,488h30.05908a16.97056,16.97056,0,0,0,11.99976-28.9707L272,448l.22974-.68921a191.13225,191.13225,0,0,0,107.564-44.56128l.657.32861v15.59815a16.9709,16.9709,0,0,0,4.97071,12h0a16.97052,16.97052,0,0,0,24,0l21.25488-21.25488a16.97071,16.97071,0,0,0-12-28.97071H403.07812l-.32861-.657a191.13225,191.13225,0,0,0,44.56128-107.564L448,272l11.0293,11.0293a16.9709,16.9709,0,0,0,12,4.9707h.00024A16.97047,16.97047,0,0,0,488,271.0293V240.97046A16.97042,16.97042,0,0,0,471.02954,224Z" style="fill:#02c26a"/><path d="M203.16751,304h105.665A19.16751,19.16751,0,0,0,328,284.83249v0a19.16755,19.16755,0,0,0-2.29107-9.08732l-46.12334-85.65763A26.78744,26.78744,0,0,0,256,176h0a26.78744,26.78744,0,0,0-23.58557,14.08752l-46.12334,85.65763A19.16755,19.16755,0,0,0,184,284.83247v0A19.16751,19.16751,0,0,0,203.16751,304Z" style="fill:#ffc431"/><path d="M121.168,234.78711a19.18854,19.18854,0,0,0,14.78223,0l1.55468-.64356,15.377,13.33594,10.48242-12.08789-19.11133-16.57519a8.00031,8.00031,0,0,0-8.30273-1.34668l-6.12305,2.53613a3.31446,3.31446,0,0,1-4.33008-4.33008L135.208,192.2334a3.31281,3.31281,0,0,1,6.12207.002l2.53711,6.123a7.99916,7.99916,0,0,0,6.82324,4.917l25.23437,1.793,1.13477-15.959L156.75586,187.666l-.64356-1.55274a19.31235,19.31235,0,0,0-35.68652-.00195l-9.71094,23.44238A19.3371,19.3371,0,0,0,121.168,234.78711Z"/><path d="M175.9248,306.93164l-25.23437,1.793a7.99916,7.99916,0,0,0-6.82324,4.917l-2.53809,6.126a3.31351,3.31351,0,0,1-6.12207-.002l-9.709-23.44042a3.31383,3.31383,0,0,1,4.3291-4.33106l6.12305,2.53613a7.99824,7.99824,0,0,0,8.30273-1.34668l19.11133-16.57519-10.48242-12.08789-15.377,13.33594-1.55468-.64356a19.31322,19.31322,0,0,0-25.23438,25.23438l9.709,23.44043a19.31307,19.31307,0,0,0,35.68653.002l.64453-1.55567,20.30371-1.44336Z"/><path d="M218.81641,367.74707a7.99791,7.99791,0,0,0-1.34668,8.30273l2.53613,6.123a3.31446,3.31446,0,0,1-4.33008,4.33008L192.2334,376.792a3.31281,3.31281,0,0,1,.002-6.12207l6.123-2.53711a7.99916,7.99916,0,0,0,4.917-6.82324l1.793-25.23437-15.959-1.13477L187.666,355.24414l-1.55274.64356a19.31235,19.31235,0,0,0-.00195,35.68652l23.44238,9.71094a19.31386,19.31386,0,0,0,25.2334-25.23536l-.64356-1.55468,13.33594-15.377L235.3916,348.63574Z"/><path d="M325.88965,355.88867l-1.55567-.64453-1.44336-20.30371-15.959,1.13477,1.793,25.23437a7.99916,7.99916,0,0,0,4.917,6.82324l6.126,2.53809a3.31351,3.31351,0,0,1-.002,6.12207l-23.44042,9.709a3.31383,3.31383,0,0,1-4.33106-4.3291l2.53613-6.123a7.99791,7.99791,0,0,0-1.34668-8.30273L276.6084,348.63574l-12.08789,10.48242,13.33594,15.377-.64356,1.55468a19.3129,19.3129,0,0,0,25.23438,25.23438l23.44043-9.709a19.31307,19.31307,0,0,0,.002-35.68653Z"/><path d="M390.832,277.21289a19.18415,19.18415,0,0,0-14.78223,0l-1.55468.64356-15.377-13.33594L348.63574,276.6084l19.11133,16.57519a8.00409,8.00409,0,0,0,8.30273,1.34668l6.123-2.53613a3.31446,3.31446,0,0,1,4.33008,4.33008L376.792,319.7666a3.31281,3.31281,0,0,1-6.12207-.00195l-2.53711-6.12305a7.99916,7.99916,0,0,0-6.82324-4.917l-25.23437-1.793-1.13477,15.959,20.30371,1.44336.64356,1.55274a19.31256,19.31256,0,0,0,35.68652.00195l9.71094-23.44238A19.3371,19.3371,0,0,0,390.832,277.21289Z"/><path d="M336.0752,205.06836l25.23437-1.793a7.99916,7.99916,0,0,0,6.82324-4.917l2.53809-6.126a3.31351,3.31351,0,0,1,6.12207.002l9.709,23.44042a3.31383,3.31383,0,0,1-4.3291,4.33106l-6.123-2.53613a7.9938,7.9938,0,0,0-8.30273,1.34668L348.63574,235.3916l10.48242,12.08789,15.377-13.33594,1.55468.64356a19.31322,19.31322,0,0,0,25.23438-25.23438l-9.709-23.44043a19.31307,19.31307,0,0,0-35.68653-.00195l-.64453,1.55567-20.30371,1.44336Z"/><path d="M471.0293,216a24.81056,24.81056,0,0,0-17.65723,7.31348l-.0249.0249A197.93883,197.93883,0,0,0,418.626,139.54883h.0498a24.9704,24.9704,0,0,0,17.65723-42.627L415.07812,75.668a24.96924,24.96924,0,0,0-42.627,17.65625v.0354a197.93972,197.93972,0,0,0-83.79931-34.697l.03466-.03467A24.97109,24.97109,0,0,0,271.0293,16H240.9707a24.97109,24.97109,0,0,0-17.65722,42.62793l.0249.0249A197.93883,197.93883,0,0,0,139.54883,93.374v-.0498A24.9704,24.9704,0,0,0,96.92188,75.667L75.668,96.92188a24.96924,24.96924,0,0,0,17.65625,42.627h.0354a197.93972,197.93972,0,0,0-34.697,83.79931l-.03467-.03466A24.97109,24.97109,0,0,0,16,240.9707v30.0586a24.97109,24.97109,0,0,0,42.62793,17.65722l.0249-.0249A197.93883,197.93883,0,0,0,93.374,372.45117h-.0498a24.9704,24.9704,0,0,0-17.65723,42.627L96.92188,436.332a24.96924,24.96924,0,0,0,42.627-17.65625v-.0354a197.93972,197.93972,0,0,0,83.79931,34.697l-.03466.03467A24.97109,24.97109,0,0,0,240.9707,496h30.0586a24.97109,24.97109,0,0,0,17.65722-42.62793l-.0249-.0249A197.93883,197.93883,0,0,0,372.45117,418.626v.0498a24.9704,24.9704,0,0,0,42.627,17.65723L436.332,415.07812a24.96924,24.96924,0,0,0-17.65625-42.627h-.0354a197.93972,197.93972,0,0,0,34.697-83.79931l.03467.03466A24.97109,24.97109,0,0,0,496,271.0293V240.9707A24.99942,24.99942,0,0,0,471.0293,216ZM480,271.0293a8.97,8.97,0,0,1-15.31348,6.34277l-11.02929-11.0293a8.00541,8.00541,0,0,0-8.1875-1.93261l-24,8,5.06054,15.17968,11.36768-3.78955a182.124,182.124,0,0,1-33.613,81.17578l-5.365-10.73-14.31054,7.1543,11.31347,22.62793a7.99825,7.99825,0,0,0,7.15527,4.42285h15.59766a8.96935,8.96935,0,0,1,6.34277,15.3125l-21.25488,21.25586a8.97022,8.97022,0,0,1-15.3125-6.34375V403.07812a7.99825,7.99825,0,0,0-4.42285-7.15527l-22.62793-11.31347-7.1543,14.31054,10.71753,5.35889a182.12877,182.12877,0,0,1-81.16748,33.63183l3.7937-11.38037-15.17968-5.06054-8,24a8.00185,8.00185,0,0,0,1.93261,8.1875l11.0293,11.02929A8.97,8.97,0,0,1,271.0293,480H240.9707a8.97,8.97,0,0,1-6.34277-15.31348l11.0293-11.02929a8.00185,8.00185,0,0,0,1.93261-8.1875l-8-24-15.17968,5.06054,3.78955,11.36768a182.124,182.124,0,0,1-81.17578-33.613l10.73-5.365-7.1543-14.31054-22.62793,11.31347a7.99825,7.99825,0,0,0-4.42285,7.15527v15.59766a8.96935,8.96935,0,0,1-15.3125,6.34277L86.98047,403.76367a8.97022,8.97022,0,0,1,6.34375-15.3125h15.59766a7.99825,7.99825,0,0,0,7.15527-4.42285l11.31347-22.62793-14.31054-7.1543-5.35889,10.71753a182.12877,182.12877,0,0,1-33.63183-81.16748l11.38037,3.7937,5.06054-15.17968-24-8a8.00483,8.00483,0,0,0-8.1875,1.93261l-11.02929,11.0293A8.97,8.97,0,0,1,32,271.0293V240.9707a8.97,8.97,0,0,1,15.31348-6.34277l11.02929,11.0293a8.00125,8.00125,0,0,0,8.1875,1.93261l24-8-5.06054-15.17968-11.36768,3.78955a182.124,182.124,0,0,1,33.613-81.17578l5.365,10.73,14.31054-7.1543-11.31347-22.62793a7.99825,7.99825,0,0,0-7.15527-4.42285H93.32422a8.96935,8.96935,0,0,1-6.34277-15.3125l21.25488-21.25586a8.97022,8.97022,0,0,1,15.3125,6.34375v15.59766a7.99825,7.99825,0,0,0,4.42285,7.15527l22.62793,11.31347,7.1543-14.31054-10.71753-5.35889a182.12877,182.12877,0,0,1,81.16748-33.63183l-3.7937,11.38037,15.17968,5.06054,8-24a8.00185,8.00185,0,0,0-1.93261-8.1875l-11.0293-11.02929A8.97,8.97,0,0,1,240.9707,32h30.0586a8.97,8.97,0,0,1,6.34277,15.31348l-11.0293,11.02929a8.00185,8.00185,0,0,0-1.93261,8.1875l8,24,15.17968-5.06054-3.78955-11.36768a182.124,182.124,0,0,1,81.17578,33.613l-10.73,5.365,7.1543,14.31054,22.62793-11.31347a7.99825,7.99825,0,0,0,4.42285-7.15527V93.32422a8.96935,8.96935,0,0,1,15.3125-6.34277l21.25586,21.25488a8.97022,8.97022,0,0,1-6.34375,15.3125H403.07812a7.99825,7.99825,0,0,0-7.15527,4.42285l-11.31347,22.62793,14.31054,7.1543,5.35889-10.71753a182.12877,182.12877,0,0,1,33.63183,81.16748l-11.38037-3.7937-5.06054,15.17968,24,8a8.00329,8.00329,0,0,0,8.1875-1.93261l11.02929-11.0293A8.97,8.97,0,0,1,480,240.9707Z"/><path d="M293.18359,144.25293a7.99791,7.99791,0,0,0,1.34668-8.30273l-2.53613-6.12305a3.31446,3.31446,0,0,1,4.33008-4.33008L319.7666,135.208a3.31281,3.31281,0,0,1-.00195,6.12207l-6.12305,2.53711a7.99916,7.99916,0,0,0-4.917,6.82324l-1.793,25.23437,15.959,1.13477,1.44336-20.30371,1.55274-.64356a19.31235,19.31235,0,0,0,.00195-35.68652l-23.44238-9.71094a19.31386,19.31386,0,0,0-25.2334,25.23536l.64356,1.55468-13.33594,15.377,12.08789,10.48242Z"/><path d="M186.11035,156.11133l1.55567.64453,1.44336,20.30371,15.959-1.13477-1.793-25.23437a7.99916,7.99916,0,0,0-4.917-6.82324l-6.126-2.53809a3.31351,3.31351,0,0,1,.002-6.12207l23.44042-9.709a3.31383,3.31383,0,0,1,4.33106,4.3291l-2.53613,6.12305a7.99791,7.99791,0,0,0,1.34668,8.30273l16.57519,19.11133,12.08789-10.48242-13.33594-15.377.64356-1.55468a19.31322,19.31322,0,0,0-25.23438-25.23438l-23.44043,9.709a19.31307,19.31307,0,0,0-.00195,35.68653Z"/><path d="M336,284.832a27.26039,27.26039,0,0,0-3.24707-12.87988l-46.123-85.65723a34.78817,34.78817,0,0,0-61.25976,0l-46.123,85.65723A27.168,27.168,0,0,0,203.168,312H308.832A27.19874,27.19874,0,0,0,336,284.832Zm-144,0a11.20249,11.20249,0,0,1,1.335-5.29394L239.458,193.88086a18.78727,18.78727,0,0,1,33.084,0l46.123,85.65723A11.16724,11.16724,0,0,1,308.832,296H203.168A11.18041,11.18041,0,0,1,192,284.832Z"/><rect x="248" y="208" width="16" height="48"/><circle cx="256" cy="272" r="8"/></svg>
